<?xml version="1.0" encoding="UTF-8"?>
<svg width="34px" height="34px" viewBox="0 0 34 34" version="1.1" xmlns="http://www.w3.org/2000/svg" xmlns:xlink="http://www.w3.org/1999/xlink">
    <title>Page 1 + Path + Rectangle 115</title>
    <defs>
        <linearGradient x1="50%" y1="0%" x2="50%" y2="97.6283482%" id="linearGradient-1">
            <stop stop-color="#FFD200" offset="0%"></stop>
            <stop stop-color="#FFB223" offset="100%"></stop>
        </linearGradient>
        <path d="M1,16 C1,13.8222123 1.42221798,11.7472341 2.26666667,9.7750016 C3.11111552,7.80276907 4.24721493,6.102784 5.67499947,4.67499947 C7.102784,3.24721493 8.80276907,2.1111168 10.7750016,1.26666667 C12.7472341,0.422216533 14.8222123,0 17,0 C19.1666773,0 21.2361003,0.422216533 23.2083328,1.26666667 C25.1805653,2.1111168 26.883328,3.24721493 28.3166677,4.67499947 C29.7500075,6.102784 30.8888832,7.80276907 31.7333333,9.7750016 C32.5777835,11.7472341 33,13.8222123 33,16 C33,18.1666773 32.5777835,20.2388779 31.7333333,22.2166656 C30.8888832,24.1944533 29.7500075,25.897216 28.3166677,27.3250005 C26.883328,28.7527851 25.1805653,29.8888845 23.2083328,30.7333333 C21.2361003,31.577782 19.1666773,32 17,32 C14.8222123,32 12.7472341,31.577782 10.7750016,30.7333333 C8.80276907,29.8888845 7.102784,28.7527851 5.67499947,27.3250005 C4.24721493,25.897216 3.11111552,24.1944533 2.26666667,22.2166656 C1.42221798,20.2388779 1,18.1666773 1,16 L1,16 Z" id="path-2"></path>
        <filter x="-6.2%" y="-3.1%" width="112.5%" height="112.5%" filterUnits="objectBoundingBox" id="filter-3">
            <feOffset dx="0" dy="1" in="SourceAlpha" result="shadowOffsetOuter1"></feOffset>
            <feGaussianBlur stdDeviation="0.5" in="shadowOffsetOuter1" result="shadowBlurOuter1"></feGaussianBlur>
            <feColorMatrix values="0 0 0 0 0   0 0 0 0 0   0 0 0 0 0  0 0 0 0.2 0" type="matrix" in="shadowBlurOuter1"></feColorMatrix>
        </filter>
    </defs>
    <g id="页面-1" stroke="none" stroke-width="1" fill="none" fill-rule="evenodd">
        <g id="显卡驱动管理器-需求更新2" transform="translate(-1022.000000, -156.000000)">
            <g id="对话框-切换模式失败1" transform="translate(1013.000000, 146.000000)">
                <g id="Page-1-+-Path-+-Rectangle-115" transform="translate(9.000000, 10.000000)">
                    <g id="Page-1">
                        <use fill="black" fill-opacity="1" filter="url(#filter-3)" xlink:href="#path-2"></use>
                        <use fill="url(#linearGradient-1)" fill-rule="evenodd" xlink:href="#path-2"></use>
                    </g>
                    <path d="M14.6296296,22.6148148 C14.6296296,23.3037065 14.8740755,23.8925919 15.3629672,24.3814793 C15.8518547,24.8703711 16.44074,25.1148169 17.1296318,25.1148169 C17.8185235,25.1148169 18.4074088,24.8703711 18.8962963,24.3814793 C19.385188,23.8925919 19.6296339,23.3037065 19.6296339,22.6148148 C19.6296339,21.9259231 19.385188,21.3370377 18.8962963,20.8481503 C18.4296296,20.3814793 17.8407443,20.1481481 17.1296318,20.1481481 C16.4185192,20.1481481 15.8296339,20.3814793 15.3629672,20.8481503 C14.8740755,21.3370377 14.6296296,21.9259231 14.6296296,22.6148148 L14.6296296,22.6148148 Z" id="Path" fill="#FFFFFF"></path>
                    <rect id="Rectangle-115" fill="#FFFFFF" x="15.2222222" y="5.92592593" width="3.55555556" height="11.8518519" rx="1.77777778"></rect>
                </g>
            </g>
        </g>
    </g>
</svg>