<?xml version="1.0" encoding="UTF-8"?>
<svg width="128px" height="128px" viewBox="0 0 128 128" version="1.1" xmlns="http://www.w3.org/2000/svg" xmlns:xlink="http://www.w3.org/1999/xlink">
    <!-- Generator: Sketch 47.1 (45422) - http://www.bohemiancoding.com/sketch -->
    <title>AMD</title>
    <desc>Created with Sketch.</desc>
    <defs></defs>
    <g id="Page-1" stroke="none" stroke-width="1" fill="none" fill-rule="evenodd">
        <g id="AMD">
            <g id="Group" transform="translate(11.000000, 4.000000)">
                <g id="AMD">
                    <path d="M34.4152258,119.235097 L26.3109677,119.235097 L23.8312258,113.256774 L10.323871,113.256774 L8.06477419,119.235097 L0.0929032258,119.235097 L12.2717419,89.0314839 L20.9969032,89.0314839 L34.4152258,119.235097 Z M16.7450323,96.2500645 L12.315871,107.986065 L21.6162581,107.986065 L16.7450323,96.2500645 L16.7450323,96.2500645 Z" id="Fill-2" fill="#1A1919"></path>
                    <polyline id="Fill-3" fill="#1A1919" points="63.8562581 89.0314839 70.4105806 89.0314839 70.4105806 119.235097 62.8815484 119.235097 62.8815484 100.368 54.7331613 109.847226 53.5819355 109.847226 45.4327742 100.368 45.4327742 119.235097 37.9037419 119.235097 37.9037419 89.0314839 44.4580645 89.0314839 54.1571613 100.235613 63.8562581 89.0314839"></polyline>
                    <path d="M89.4890323,89.0314839 C100.516645,89.0314839 106.18529,95.8962581 106.18529,104.178581 C106.18529,112.858065 100.693161,119.235097 88.6474839,119.235097 L76.1581935,119.235097 L76.1581935,89.0314839 L89.4890323,89.0314839 Z M83.6872258,113.699613 L88.6025806,113.699613 C96.1765161,113.699613 98.4340645,108.56129 98.4340645,104.134452 C98.4340645,98.952 95.6446452,94.5669677 88.5150968,94.5669677 L83.6872258,94.5669677 L83.6872258,113.699613 L83.6872258,113.699613 Z" id="Fill-4" fill="#1A1919"></path>
                    <path d="M68.6825806,20.2087742 L35.8629677,20.2087742 L15.6565161,0.167225806 L89.0903226,0.0758709677 L89.0903226,73.3447742 L68.6825806,52.8433548 L68.6825806,20.2087742 Z M36.12,53.4874839 L65.6485161,53.4874839 L45.24,73.896 L15.1788387,73.896 L15.1788387,44.6624516 L35.9550968,23.8854194 L36.12,53.4874839 Z" id="Combined-Shape" fill="#489973"></path>
                </g>
            </g>
        </g>
    </g>
</svg>