<?xml version="1.0" encoding="UTF-8"?>
<svg width="128px" height="128px" viewBox="0 0 128 128" version="1.1" xmlns="http://www.w3.org/2000/svg" xmlns:xlink="http://www.w3.org/1999/xlink">
    <!-- Generator: Sketch 47.1 (45422) - http://www.bohemiancoding.com/sketch -->
    <title>Intel</title>
    <desc>Created with Sketch.</desc>
    <defs></defs>
    <g id="Page-1" stroke="none" stroke-width="1" fill="none" fill-rule="evenodd">
        <g id="Intel" fill="#006FA8">
            <g id="intel" transform="translate(4.000000, 24.000000)">
                <path d="M0.164510386,46.6223145 L0.164510386,49.8156677 C0.164510386,55.4496142 2.39928783,60.4582789 4.67465875,63.8674184 C7.2505638,67.727003 10.6824926,70.0098516 14.6147181,72.4892582 C17.7176261,74.4455786 23.982908,76.615549 28.2149555,77.451276 C33.4322849,78.4810682 38.6980415,79.2551929 44.9729377,79.2551929 L48.0665875,79.2551929 C67.3516914,79.2551929 86.9455193,73.6557864 99.5611869,66.9806528 L99.5611869,57.8991098 C96.1477745,59.7051632 91.9449258,62.0898516 88.0045104,63.3076558 C87.1666469,63.5665282 85.8459347,64.1383976 84.968546,64.4627893 C83.8878338,64.8619585 82.8277745,65.1236795 81.758457,65.5438576 C80.1592878,66.1734125 76.9338872,67.03727 75.1509792,67.4197033 C72.8553116,67.9121662 70.6718101,68.5363798 68.2664688,69.0174481 C65.785638,69.514184 63.5757864,69.7812463 60.9998813,70.2334718 C58.6176855,70.6522255 55.7971513,70.7967953 53.2554303,70.9719881 C50.6008309,71.1546588 47.845816,71.271454 44.9729377,71.271454 L44.3740059,71.271454 C34.1472997,71.271454 24.3909792,69.6633828 17.56273,66.2481899 C10.9947774,62.9629674 4.8548368,56.8750148 4.8548368,47.1211869 L4.8548368,46.2231454 C4.8548368,41.6343027 6.26421365,38.1090801 7.5895549,34.7864688 C8.17139466,33.3279525 9.26813056,31.4688427 10.1042136,30.2157864 C10.6265875,29.4324036 11.0510386,28.8626706 11.5997626,28.118457 C12.090089,27.4536499 12.8542433,26.7368546 13.2377448,26.1639169 L13.2377448,22.9705638 C11.6467656,24.0359644 9.97424332,26.1318694 8.62468843,27.5383976 C7.09317507,29.1340059 5.95727003,30.9137092 4.69531157,32.7902671 C2.82160237,35.575905 0.164510386,42.0573294 0.164510386,46.6223145" id="Fill-4"></path>
                <path d="M119.919525,29.35727 L119.919525,26.4633828 C119.885697,26.4103264 119.455193,23.2255193 119.380772,22.8106825 C119.193116,21.767003 118.814599,20.434184 118.453887,19.5464688 C117.551929,17.3294955 116.803442,15.8303858 115.456024,14.061365 C112.963442,10.7886053 109.994421,8.4231454 106.281543,6.36997033 C99.4661128,2.60083086 89.0923442,0.316913947 78.5042136,0.316913947 L77.6061721,0.316913947 C66.6808309,0.316913947 57.6452226,2.13364985 49.1049258,4.54860534 C46.8494955,5.18635015 45.0149555,5.84510386 42.9140653,6.54089021 C41.1749555,7.11703264 38.6286053,8.08166172 37.054362,8.86468843 C35.1881306,9.79228487 33.3268843,10.5888427 31.500178,11.4940059 C30.5327003,11.9732938 26.8169733,14.2468843 26.211276,14.3878932 L26.211276,16.782908 C27.0345401,16.5913353 30.0676558,14.9159644 31.2331157,14.4202967 C32.8508012,13.7319881 34.8811869,12.7107418 36.509911,12.2122255 C37.2484273,11.9861128 38.4690801,11.524273 39.2018991,11.211632 C40.0913947,10.8324036 41.0211276,10.6009496 41.9661721,10.2836795 C43.7683086,9.67976261 45.7823145,8.99857567 47.6880712,8.52071217 C51.7933531,7.49127596 55.4104451,6.65554896 59.9010089,5.86397626 C63.7274777,5.18991098 69.1093175,4.50836795 73.4147181,4.50836795 L77.905638,4.50836795 C86.6489021,4.50836795 96.1146588,6.51596439 101.722255,9.63204748 C105.124985,11.5228487 107.411395,13.114184 109.758338,16.0668249 C111.527003,18.2919881 113.732226,22.7305638 113.732226,26.6627893 L113.732226,28.3595252 C113.732226,32.5043323 111.578991,36.9614243 109.781484,39.3781602 C108.691869,40.8437982 107.611513,42.1491988 106.274065,43.3552522 C105.623501,43.941365 102.586469,46.3520475 101.856142,46.5222552 L101.856142,53.1090801 C103.263383,52.9915727 107.496142,50.2664688 108.583976,49.4578042 C110.588368,47.9672404 112.384095,46.2519881 113.913828,44.3091988 C115.653294,42.0997033 116.591573,40.4802374 117.857092,37.7736499 C118.43003,36.548724 118.761187,35.2899703 119.178516,33.9055193 C119.347656,33.3439763 119.908131,29.3757864 119.919525,29.35727" id="Fill-5"></path>
                <path d="M72.3169139,38.0396439 L72.3169139,38.7382789 L81.6979228,38.7382789 L81.6979228,38.2394065 C81.6979228,35.7617804 79.9160831,33.548724 77.3067062,33.548724 L76.8078338,33.548724 C74.5103858,33.548724 72.3169139,35.7902671 72.3169139,38.0396439 Z M66.1296142,40.4346588 L66.1296142,41.6321662 C66.1296142,48.4935312 70.3395846,53.5082493 77.207003,53.5082493 L78.5042136,53.5082493 C80.5830267,53.5082493 82.0678932,53.0043917 83.5556083,52.3719881 C85.1754303,51.6836795 85.9990504,50.5110979 87.2118694,49.6889021 L83.2942433,46.0233828 C82.5226113,47.1753116 80.3850445,48.3183383 78.4045104,48.3183383 L77.3067062,48.3183383 C74.7090801,48.3183383 72.3169139,46.109911 72.3169139,43.628368 L72.3169139,42.9297329 L87.8848665,42.9297329 L87.8848665,40.2352522 C87.8848665,37.0611276 86.7500297,34.0041543 85.3630861,32.1788724 C84.0462908,30.4461721 81.3753116,28.4592285 78.4045104,28.4592285 L76.508368,28.4592285 C73.3694955,28.4592285 70.5293769,30.4297923 68.9971513,32.1251039 C67.4328783,33.8567359 66.1296142,37.1533531 66.1296142,40.4346588 L66.1296142,40.4346588 Z" id="Fill-6"></path>
                <path d="M29.3049258,53.1090801 L35.3925223,53.1090801 L35.3925223,33.8481899 L40.8811869,33.8481899 C42.0908012,33.8481899 43.0767953,34.7846884 43.0767953,35.9437389 L43.0767953,53.1090801 L49.264095,53.1090801 L49.264095,36.0437982 C49.264095,31.9944214 46.508368,28.8583976 42.4778635,28.8583976 L29.3049258,28.8583976 L29.3049258,53.1090801" id="Fill-7"></path>
                <path d="M53.7546588,45.9236795 C53.7546588,50.0221958 56.4195846,53.1090801 60.4411869,53.1090801 L64.6326409,53.1090801 L64.6326409,47.9191691 L61.5389911,47.9191691 C60.6227893,47.9191691 59.9423145,46.8587537 59.9423145,45.9236795 L59.9423145,33.8481899 L64.6326409,33.8481899 L64.6326409,28.8583976 L59.9423145,28.8583976 L59.9423145,22.1722255 L53.7546588,22.1722255 L53.7546588,45.9236795" id="Fill-8"></path>
                <path d="M91.4777448,47.2205341 C91.4777448,48.8773887 92.4811869,50.3797033 93.347181,51.2392878 C93.8125816,51.7007715 94.547181,52.0817804 95.2280119,52.3527596 C96.1816024,52.731632 96.6744214,52.6785757 97.6650445,52.9093175 L97.6650445,18.7791098 L91.4777448,18.7791098 L91.4777448,47.2205341" id="Fill-9"></path>
                <path d="M17.5046884,34.5461128 L17.5289021,46.6223145 C17.5289021,50.7126409 19.9271217,53.3216617 23.8162611,53.4081899 L23.8162611,28.8583976 L17.6517507,28.8587537 L17.5046884,34.5461128" id="Fill-10"></path>
                <polygon id="Fill-11" points="17.6289614 25.4652819 23.8162611 25.4652819 23.8162611 19.5774481 17.6289614 19.5774481"></polygon>
                <path d="M103.683917,21.0993472 L104.206291,21.0993472 C104.455193,21.0993472 104.625401,21.0616024 104.716202,20.9875371 C104.807003,20.9134718 104.852938,20.8148368 104.852938,20.691632 C104.852938,20.6132938 104.830504,20.5427893 104.786706,20.4797626 C104.743264,20.4181602 104.68273,20.3711573 104.605104,20.3408902 C104.526766,20.3095549 104.383264,20.2949555 104.172819,20.2949555 L103.683917,20.2949555 L103.683917,21.0993472 Z M103.253769,22.5988131 L103.253769,19.9342433 L104.169258,19.9342433 C104.482967,19.9342433 104.709436,19.9573887 104.849733,20.0068843 C104.989674,20.0560237 105.100772,20.1425519 105.184451,20.2646884 C105.267418,20.3878932 105.30908,20.5178635 105.30908,20.6556677 C105.30908,20.8508012 105.239644,21.0199407 105.100772,21.1645104 C104.961543,21.3090801 104.776736,21.389911 104.547062,21.4077151 C104.641068,21.4472404 104.717626,21.4938872 104.773531,21.5490801 C104.881068,21.6544807 105.012107,21.8303858 105.167715,22.0778635 L105.492819,22.5988131 L104.96724,22.5988131 L104.730801,22.178635 C104.54457,21.8492582 104.395371,21.6420178 104.281424,21.5590504 C104.20273,21.4974481 104.087359,21.467181 103.936024,21.467181 L103.683917,21.467181 L103.683917,22.5988131 L103.253769,22.5988131 Z M104.34089,19.1618991 C103.991929,19.1618991 103.65365,19.251632 103.324273,19.4296736 C102.994896,19.6080712 102.737092,19.8633828 102.551217,20.1938279 C102.364985,20.5260534 102.272047,20.8707418 102.272047,21.2307418 C102.272047,21.587181 102.363917,21.9290208 102.546588,22.2562611 C102.729614,22.5831454 102.98457,22.8388131 103.313234,23.0214837 C103.641543,23.2041543 103.983383,23.2960237 104.34089,23.2960237 C104.697329,23.2960237 105.040237,23.2041543 105.368546,23.0214837 C105.696855,22.8388131 105.951098,22.5831454 106.1327,22.2562611 C106.314303,21.9290208 106.405104,21.587181 106.405104,21.2307418 C106.405104,20.8707418 106.313234,20.5260534 106.128071,20.1938279 C105.943264,19.8633828 105.68546,19.6080712 105.355015,19.4296736 C105.02457,19.251632 104.686291,19.1618991 104.34089,19.1618991 Z M104.34089,18.7516914 C104.756439,18.7516914 105.162374,18.8581602 105.55905,19.0710979 C105.954659,19.2851039 106.263739,19.589911 106.48451,19.9876558 C106.705638,20.3846884 106.81638,20.7991691 106.81638,21.2307418 C106.81638,21.6576855 106.707418,22.0678932 106.489139,22.461365 C106.271929,22.855549 105.965697,23.1614243 105.57365,23.3789911 C105.179822,23.5976261 104.76997,23.7062315 104.34089,23.7062315 C103.911454,23.7062315 103.500534,23.5976261 103.108131,23.3789911 C102.714659,23.1614243 102.408783,22.855549 102.190148,22.461365 C101.970801,22.0678932 101.86184,21.6576855 101.86184,21.2307418 C101.86184,20.7991691 101.972938,20.3846884 102.194777,19.9876558 C102.416617,19.589911 102.726053,19.2851039 103.12273,19.0710979 C103.517982,18.8581602 103.924985,18.7516914 104.34089,18.7516914 L104.34089,18.7516914 Z" id="Fill-12"></path>
            </g>
        </g>
    </g>
</svg>