<?xml version="1.0" encoding="UTF-8"?>
<svg width="128px" height="128px" viewBox="0 0 128 128" version="1.1" xmlns="http://www.w3.org/2000/svg" xmlns:xlink="http://www.w3.org/1999/xlink">
    <!-- Generator: Sketch 47.1 (45422) - http://www.bohemiancoding.com/sketch -->
    <title>NVIDIA</title>
    <desc>Created with Sketch.</desc>
    <defs></defs>
    <g id="Page-1" stroke="none" stroke-width="1" fill="none" fill-rule="evenodd">
        <g id="NVIDIA">
            <g id="nvidia" transform="translate(4.000000, 20.000000)">
                <path d="M116.574886,85.4157955 L116.574886,84.6927273 L117.039886,84.6927273 C117.292841,84.6927273 117.6375,84.7131818 117.6375,85.0217045 C117.6375,85.3571591 117.459205,85.4157955 117.160909,85.4157955 L116.574886,85.4157955 M116.574886,85.9244318 L116.885114,85.9244318 L117.604432,87.1868182 L118.393295,87.1868182 L117.596932,85.87125 C118.008409,85.8419318 118.346932,85.64625 118.346932,85.0922727 C118.346932,84.4036364 117.872386,84.1827273 117.068523,84.1827273 L115.905682,84.1827273 L115.905682,87.1868182 L116.574205,87.1868182 L116.574886,85.9244318 M119.953295,85.6888636 C119.953295,83.9243182 118.583182,82.9002273 117.055568,82.9002273 C115.517727,82.9002273 114.147273,83.9243182 114.147273,85.6888636 C114.147273,87.4520455 115.518068,88.4798864 117.055568,88.4798864 C118.583182,88.4798864 119.953295,87.4520455 119.953295,85.6888636 M119.117045,85.6888636 C119.117045,86.9740909 118.173068,87.8372727 117.055568,87.8372727 L117.055568,87.8294318 C115.906364,87.8372727 114.979773,86.9740909 114.979773,85.6888636 C114.979773,84.4039773 115.906364,83.5435227 117.055568,83.5435227 C118.173409,83.5435227 119.117045,84.4036364 119.117045,85.6888636" id="Shape" fill="#000000"></path>
                <path d="M47.0406818,66.4636364 L47.0430682,87.5747727 L53.0052273,87.5747727 L53.0052273,66.4636364 L47.0406818,66.4636364 Z M0.137386364,66.4343182 L0.137386364,87.5747727 L6.15272727,87.5747727 L6.15272727,71.5227273 L10.8132955,71.5240909 C12.3569318,71.5240909 13.4567045,71.9089773 14.2002273,72.7026136 C15.1428409,73.7065909 15.5277273,75.3272727 15.5277273,78.2921591 L15.5277273,87.5747727 L21.3565909,87.5747727 L21.3565909,75.8945455 C21.3565909,67.5582955 16.0431818,66.4343182 10.8443182,66.4343182 L0.137386364,66.4343182 Z M56.6406818,66.4636364 L56.6406818,87.5747727 L66.3102273,87.5747727 C71.4627273,87.5747727 73.1454545,86.7184091 74.9645455,84.7973864 C76.2494318,83.4484091 77.0805682,80.4876136 77.0805682,77.2517045 C77.0805682,74.2830682 76.3772727,71.6372727 75.1510227,69.9886364 C72.9419318,67.0404545 69.7592045,66.4636364 65.0089773,66.4636364 L56.6406818,66.4636364 Z M62.5554545,71.0604545 L65.1194318,71.0604545 C68.8380682,71.0604545 71.2442045,72.7305682 71.2442045,77.0638636 C71.2442045,81.3978409 68.8380682,83.0676136 65.1194318,83.0676136 L62.5554545,83.0676136 L62.5554545,71.0604545 Z M38.4446591,66.4636364 L33.4680682,83.1947727 L28.7007955,66.465 L22.2647727,66.4636364 L29.0734091,87.5747727 L37.6667045,87.5747727 L44.5302273,66.4636364 L38.4446591,66.4636364 Z M79.8538636,87.5747727 L85.81875,87.5747727 L85.81875,66.465 L79.8528409,66.4636364 L79.8538636,87.5747727 Z M96.5696591,66.4714773 L88.2432955,87.5669318 L94.1226136,87.5669318 L95.4395455,83.8394318 L105.292841,83.8394318 L106.539205,87.5669318 L112.921705,87.5669318 L104.533636,66.4690909 L96.5696591,66.4714773 Z M100.438977,70.3203409 L104.051932,80.2039773 L96.7142045,80.2039773 L100.438977,70.3203409 Z" id="Shape" fill="#000000"></path>
                <path d="M39.1578409,17.0117045 L39.1578409,11.9393182 C39.6507955,11.9048864 40.1471591,11.8782955 40.6547727,11.8622727 C54.5256818,11.4265909 63.6255682,23.7821591 63.6255682,23.7821591 C63.6255682,23.7821591 53.7964773,37.4328409 43.2576136,37.4328409 C41.74125,37.4328409 40.3813636,37.1890909 39.1575,36.7772727 L39.1575,21.3981818 C44.5575,22.0506818 45.6439773,24.4360227 48.8907955,29.8479545 L56.11125,23.7596591 C56.11125,23.7596591 50.8407955,16.8470455 41.9556818,16.8470455 C40.9895455,16.8467045 40.0653409,16.9145455 39.1578409,17.0117045 L39.1578409,17.0117045 Z M39.1578409,0.258068182 L39.1578409,7.83238636 C39.6559091,7.79420455 40.1539773,7.76181818 40.6547727,7.74477273 C59.9440909,7.09465909 72.5123864,23.565 72.5123864,23.565 C72.5123864,23.565 58.0772727,41.1177273 43.0384091,41.1177273 C41.6601136,41.1177273 40.3697727,40.9898864 39.1578409,40.7747727 L39.1578409,45.4588636 C40.1942045,45.5901136 41.2684091,45.6675 42.3896591,45.6675 C56.3846591,45.6675 66.5052273,38.5203409 76.305,30.0613636 C77.9294318,31.3626136 84.5815909,34.5282955 85.9489773,35.9134091 C76.63125,43.7151136 54.9156818,50.0031818 42.6040909,50.0031818 C41.4177273,50.0031818 40.2780682,49.93125 39.1578409,49.8235227 L39.1578409,56.4051136 L92.3505682,56.4051136 L92.3505682,0.258068182 L39.1578409,0.258068182 Z M39.1578409,36.7776136 L39.1578409,40.7757955 C26.2142045,38.4678409 22.6213636,25.0131818 22.6213636,25.0131818 C22.6213636,25.0131818 28.8361364,18.1285227 39.1578409,17.0120455 L39.1578409,21.3985227 C39.15,21.3985227 39.1445455,21.3961364 39.1377273,21.3961364 C33.7206818,20.7460227 29.4886364,25.8068182 29.4886364,25.8068182 C29.4886364,25.8068182 31.8606818,34.3261364 39.1578409,36.7776136 L39.1578409,36.7776136 Z M16.1676136,24.4292045 C16.1676136,24.4292045 23.8394318,13.11 39.1578409,11.9389773 L39.1578409,7.83238636 C22.1907955,9.195 7.49863636,23.565 7.49863636,23.565 C7.49863636,23.565 15.8202273,47.6209091 39.1578409,49.8238636 L39.1578409,45.4588636 C22.0315909,43.3043182 16.1676136,24.4292045 16.1676136,24.4292045 L16.1676136,24.4292045 Z" id="Shape" fill="#77B900" fill-rule="nonzero"></path>
            </g>
        </g>
    </g>
</svg>