<?xml version="1.0" encoding="UTF-8"?>
<svg width="128px" height="128px" viewBox="0 0 128 128" version="1.1" xmlns="http://www.w3.org/2000/svg" xmlns:xlink="http://www.w3.org/1999/xlink">
    <!-- Generator: Sketch 47.1 (45422) - http://www.bohemiancoding.com/sketch -->
    <title>Intel-NVIDIA</title>
    <desc>Created with Sketch.</desc>
    <defs></defs>
    <g id="Page-1" stroke="none" stroke-width="1" fill="none" fill-rule="evenodd">
        <g id="Intel-NVIDIA">
            <g id="Group-8" transform="translate(14.000000, 4.000000)">
                <g id="Group-3" transform="translate(17.000000, 7.000000)">
                    <g id="Group-4">
                        <g id="intel" transform="translate(0.977351, 0.385526)" fill="#006FA8">
                            <path d="M0.0956034919,27.094071 L0.0956034919,28.9498548 C0.0956034919,32.223964 1.39432106,35.1346972 2.7166291,37.1158829 C4.2135894,39.3588402 6.20801896,40.6854938 8.49319074,42.126375 C10.2964133,43.2632702 13.9374164,44.5243258 16.3968266,45.0099998 C19.4288231,45.6084529 22.4889625,46.0583273 26.1355529,46.0583273 L27.9333952,46.0583273 C39.1407318,46.0583273 50.5274802,42.8042907 57.8589436,38.9251066 L57.8589436,33.6474627 C55.8752746,34.6970318 53.432833,36.0828686 51.1429018,36.7905827 C50.6559862,36.9410237 49.8884681,37.2733597 49.3785828,37.4618765 C48.7505382,37.6938495 48.1344958,37.845946 47.5130731,38.090128 C46.5837327,38.4559873 44.7093248,38.9580091 43.6732064,39.1802562 C42.3391032,39.4664459 41.0701841,39.8292011 39.6723451,40.1087689 C38.2306362,40.3974418 36.946404,40.5526422 35.4494437,40.8154484 C34.0650555,41.0588027 32.4259316,41.1428179 30.9488369,41.2446294 C29.4061442,41.3507865 27.8050961,41.4186609 26.1355529,41.4186609 L25.7874899,41.4186609 C19.8443465,41.4186609 14.1745628,40.4841471 10.206397,38.4994434 C6.38950004,36.5902707 2.82133768,33.0523207 2.82133768,27.3839855 L2.82133768,26.862098 C2.82133768,24.19534 3.64038232,22.1466938 4.41059054,20.2157929 C4.74872063,19.3681914 5.38607725,18.2877892 5.8719582,17.5595886 C6.17553032,17.1043338 6.42219561,16.7732395 6.74108085,16.3407475 C7.02602892,15.9544018 7.47010921,15.5378437 7.69297709,15.204887 L7.69297709,13.3491032 C6.76839614,13.9682496 5.7964273,15.1862629 5.01214757,16.0036521 C4.12212459,16.9309232 3.46200524,17.9651791 2.72863127,19.0557211 C1.63974474,20.6745655 0.0956034919,24.4411776 0.0956034919,27.094071" id="Fill-4"></path>
                            <path d="M69.6899792,17.0606708 L69.6899792,15.3789184 C69.6703205,15.3480853 69.4201373,13.4972679 69.3768881,13.2561898 C69.2678339,12.6496664 69.0478631,11.8751125 68.838239,11.3592262 C68.3140753,10.0708553 67.8791001,9.19966329 67.096062,8.17161535 C65.6475242,6.26968528 63.9221088,4.89502295 61.7644083,3.7018417 C57.8036922,1.51144568 51.775085,0.184171229 45.6219036,0.184171229 L45.1000161,0.184171229 C38.7508682,0.184171229 33.4999188,1.23994832 28.5368146,2.64337447 C27.2260949,3.0139932 26.1599711,3.39682104 24.9390607,3.80117001 C23.9283952,4.13598916 22.4486104,4.69657328 21.5337554,5.15162106 C20.4492144,5.69068404 19.3675706,6.15359532 18.3059994,6.67962146 C17.7437598,6.95815458 15.5844039,8.27942795 15.2324092,8.3613738 L15.2324092,9.75321165 C15.7108405,9.64188118 17.473504,8.66825687 18.1507989,8.38020479 C19.0908999,7.98020144 20.2708374,7.38671482 21.2173533,7.09700727 C21.6465344,6.9656042 22.355904,6.69721085 22.7817741,6.51552283 C23.2986951,6.29513816 23.8389997,6.16063108 24.3882025,5.97625292 C25.4354953,5.62529291 26.6059138,5.22942824 27.7134244,4.95172285 C30.099166,4.35347676 32.2012013,3.86780274 34.8108455,3.40778854 C37.0345579,3.01606254 40.1621578,2.61999093 42.6641964,2.61999093 L45.2740476,2.61999093 C50.3551042,2.61999093 55.8560298,3.78668463 59.1148259,5.59756376 C61.0922868,6.69638312 62.4210098,7.62117101 63.7849116,9.33706745 C64.8127526,10.6301978 66.0942946,13.2096297 66.0942946,15.4948014 L66.0942946,16.4808418 C66.0942946,18.8895531 64.8429649,21.4797456 63.7983623,22.8842064 C63.1651444,23.7359466 62.5373067,24.4945665 61.7600627,25.1954519 C61.3819944,25.5360652 59.6170546,26.9370081 59.192633,27.0359226 L59.192633,30.863787 C60.0104361,30.7954988 62.4702601,29.2118332 63.1024434,28.7418862 C64.2672747,27.8756606 65.3108426,26.8788597 66.199831,25.749828 C67.2107034,24.4658027 67.7559744,23.524667 68.4914177,21.951762 C68.8243744,21.2399091 69.016823,20.5083976 69.2593496,19.7038383 C69.3576433,19.3775034 69.6833573,17.0714313 69.6899792,17.0606708" id="Fill-5"></path>
                            <path d="M42.026219,22.1063416 L42.026219,22.5123461 L47.4778943,22.5123461 L47.4778943,22.2224316 C47.4778943,20.7825851 46.4423968,19.4964905 44.9259847,19.4964905 L44.6360702,19.4964905 C43.3009322,19.4964905 42.026219,20.7991398 42.026219,22.1063416 Z M38.4305344,23.4981795 L38.4305344,24.1940984 C38.4305344,28.181509 40.8771147,31.09576 44.8680431,31.09576 L45.6219036,31.09576 C46.8299841,31.09576 47.6928987,30.8029485 48.5574688,30.4354337 C49.4988114,30.0354304 49.9774497,29.3539968 50.6822668,28.8761863 L48.4055793,26.7460081 C47.9571534,27.4154395 46.7149288,28.0796975 45.5639621,28.0796975 L44.9259847,28.0796975 C43.4164014,28.0796975 42.026219,26.796293 42.026219,25.3541702 L42.026219,24.9481658 L51.073372,24.9481658 L51.073372,23.3822965 C51.073372,21.5376871 50.4138734,19.761159 49.6078656,18.7004155 C48.8426238,17.6934748 47.2904121,16.5387833 45.5639621,16.5387833 L44.4620387,16.5387833 C42.6379158,16.5387833 40.9874105,17.6839559 40.0969736,18.6691685 C39.1879127,19.6754883 38.4305344,21.591283 38.4305344,23.4981795 L38.4305344,23.4981795 Z" id="Fill-6"></path>
                            <path d="M17.0302515,30.863787 L20.5679945,30.863787 L20.5679945,19.6705219 L23.7576747,19.6705219 C24.4606294,19.6705219 25.0336295,20.2147583 25.0336295,20.8883283 L25.0336295,30.863787 L28.6293141,30.863787 L28.6293141,20.9464768 C28.6293141,18.5932237 27.0278521,16.7707563 24.6855666,16.7707563 L17.0302515,16.7707563 L17.0302515,30.863787" id="Fill-7"></path>
                            <path d="M31.2389583,26.6880666 C31.2389583,29.0698765 32.7876521,30.863787 35.1247643,30.863787 L37.560584,30.863787 L37.560584,27.8477245 L35.7627417,27.8477245 C35.2303006,27.8477245 34.8348498,27.2314752 34.8348498,26.6880666 L34.8348498,19.6705219 L37.560584,19.6705219 L37.560584,16.7707563 L34.8348498,16.7707563 L34.8348498,12.8851572 L31.2389583,12.8851572 L31.2389583,26.6880666" id="Fill-8"></path>
                            <path d="M53.1613357,27.4417201 C53.1613357,28.4045838 53.7444756,29.2776382 54.247739,29.7771768 C54.5182017,30.0453632 54.9451065,30.2667826 55.3407642,30.4242593 C55.8949334,30.644437 56.18133,30.6136039 56.7570203,30.7476971 L56.7570203,10.9132835 L53.1613357,10.9132835 L53.1613357,27.4417201" id="Fill-9"></path>
                            <path d="M10.1726668,20.0761125 L10.1867383,27.094071 C10.1867383,29.4711215 11.5804386,30.9873266 13.8405713,31.0376116 L13.8405713,16.7707563 L10.2581305,16.7709632 L10.1726668,20.0761125" id="Fill-10"></path>
                            <polygon id="Fill-11" points="10.2448868 14.7988825 13.8405713 14.7988825 13.8405713 11.3772294 10.2448868 11.3772294"></polygon>
                            <path d="M60.2548251,12.2616652 L60.5583972,12.2616652 C60.703044,12.2616652 60.8019585,12.2397302 60.8547266,12.1966879 C60.9074948,12.1536456 60.9341893,12.0963249 60.9341893,12.0247258 C60.9341893,11.9792003 60.9211524,11.9382274 60.8956996,11.9016001 C60.8704536,11.8658005 60.8352748,11.8384852 60.7901632,11.8208958 C60.7446378,11.8026856 60.6612434,11.7942013 60.5389454,11.7942013 L60.2548251,11.7942013 L60.2548251,12.2616652 Z M60.0048488,13.1330641 L60.0048488,11.5845772 L60.5368761,11.5845772 C60.7191849,11.5845772 60.8507949,11.598028 60.9323269,11.6267918 C61.0136519,11.6553487 61.0782153,11.7056336 61.1268448,11.776612 C61.1750604,11.8482111 61.1992717,11.923742 61.1992717,12.0038255 C61.1992717,12.1172253 61.1589196,12.2155189 61.0782153,12.2995341 C60.9973041,12.3835493 60.8899054,12.4305233 60.756433,12.44087 C60.8110636,12.4638397 60.8555544,12.490948 60.888043,12.5230228 C60.9505371,12.5842752 61.0266888,12.6865006 61.1171189,12.8303197 L61.3060496,13.1330641 L61.0006151,13.1330641 L60.8632109,12.888882 C60.7549845,12.6974681 60.6682791,12.5770325 60.6020603,12.5288169 C60.5563279,12.4930173 60.4892812,12.475428 60.4013343,12.475428 L60.2548251,12.475428 L60.2548251,13.1330641 L60.0048488,13.1330641 Z M60.6366182,11.1357375 C60.4338229,11.1357375 60.2372357,11.1878848 60.0458218,11.2913518 C59.8544078,11.3950257 59.7045877,11.5433974 59.5965681,11.7354321 C59.4883417,11.9285015 59.4343319,12.1288136 59.4343319,12.3380238 C59.4343319,12.5451647 59.4877209,12.7438213 59.593878,12.9339936 C59.700242,13.123959 59.8484068,13.2725376 60.0394068,13.3786947 C60.2301999,13.4848518 60.4288565,13.5382408 60.6366182,13.5382408 C60.8437591,13.5382408 61.0430365,13.4848518 61.2338297,13.3786947 C61.4246228,13.2725376 61.5723736,13.123959 61.6779099,12.9339936 C61.7834463,12.7438213 61.8362144,12.5451647 61.8362144,12.3380238 C61.8362144,12.1288136 61.7828255,11.9285015 61.6752198,11.7354321 C61.5678211,11.5433974 61.4180009,11.3950257 61.2259662,11.2913518 C61.0339314,11.1878848 60.8373442,11.1357375 60.6366182,11.1357375 Z M60.6366182,10.8973495 C60.8781102,10.8973495 61.1140149,10.9592228 61.3445393,11.0829693 C61.574443,11.2073366 61.7540616,11.3844721 61.8823607,11.6156173 C62.0108667,11.8463487 62.0752232,12.0872198 62.0752232,12.3380238 C62.0752232,12.5861376 62.0119014,12.8245256 61.8850508,13.0531876 C61.7588211,13.2822635 61.5808579,13.4600198 61.3530236,13.5864564 C61.1241547,13.7135139 60.8859737,13.7766287 60.6366182,13.7766287 C60.3870559,13.7766287 60.1482541,13.7135139 59.9202128,13.5864564 C59.6915508,13.4600198 59.5137945,13.2822635 59.3867371,13.0531876 C59.2592658,12.8245256 59.195944,12.5861376 59.195944,12.3380238 C59.195944,12.0872198 59.2605074,11.8463487 59.3894272,11.6156173 C59.5183471,11.3844721 59.6981727,11.2073366 59.9286971,11.0829693 C60.1583938,10.9592228 60.3949194,10.8973495 60.6366182,10.8973495 L60.6366182,10.8973495 Z" id="Fill-12"></path>
                        </g>
                        <g id="nvidia" transform="translate(0.965828, 55.911983)">
                            <path d="M67.765973,49.6529284 L67.765973,49.2326027 L68.0362814,49.2326027 C68.1833261,49.2326027 68.3836793,49.2444931 68.3836793,49.42384 C68.3836793,49.6188426 68.2800347,49.6529284 68.106633,49.6529284 L67.765973,49.6529284 M67.765973,49.9486031 L67.9463107,49.9486031 L68.3644565,50.682439 L68.8230297,50.682439 L68.3600967,49.917688 C68.5992919,49.9006451 68.7960781,49.7868936 68.7960781,49.4648619 C68.7960781,49.0645517 68.5202208,48.9361354 68.052928,48.9361354 L67.3769587,48.9361354 L67.3769587,50.682439 L67.7655766,50.682439 L67.765973,49.9486031 M69.7298709,49.8116653 C69.7298709,48.78592 68.9334122,48.1906072 68.0453974,48.1906072 C67.1514374,48.1906072 66.3547805,48.78592 66.3547805,49.8116653 C66.3547805,50.8366179 67.1516356,51.4341105 68.0453974,51.4341105 C68.9334122,51.4341105 69.7298709,50.8366179 69.7298709,49.8116653 M69.2437517,49.8116653 C69.2437517,50.5587788 68.6950097,51.0605537 68.0453974,51.0605537 L68.0453974,51.0559958 C67.377355,51.0605537 66.8387199,50.5587788 66.8387199,49.8116653 C66.8387199,49.0647499 67.377355,48.5645603 68.0453974,48.5645603 C68.6952078,48.5645603 69.2437517,49.0645517 69.2437517,49.8116653" id="Shape" fill="#000000"></path>
                            <path d="M27.3451484,38.6358771 L27.3465357,50.9079603 L30.8123895,50.9079603 L30.8123895,38.6358771 L27.3451484,38.6358771 Z M0.0798638617,38.6188342 L0.0798638617,50.9079603 L3.5766327,50.9079603 L3.5766327,41.5767697 L6.28586062,41.5775624 C7.18318957,41.5775624 7.82249681,41.8013001 8.25471289,42.2626477 C8.80266222,42.8462682 9.02639994,43.7883843 9.02639994,45.511898 L9.02639994,50.9079603 L12.4147679,50.9079603 L12.4147679,44.1181448 C12.4147679,39.2722118 9.32603805,38.6188342 6.3038944,38.6188342 L0.0798638617,38.6188342 Z M32.9257101,38.6358771 L32.9257101,50.9079603 L38.5466991,50.9079603 C41.5418912,50.9079603 42.5200749,50.4101488 43.5775279,49.2934419 C44.3244433,48.50927 44.8075899,46.7881344 44.8075899,44.9070729 C44.8075899,43.1813794 44.3987583,41.643356 43.6859287,40.6849896 C42.4017654,38.9711864 40.5516189,38.6358771 37.7902714,38.6358771 L32.9257101,38.6358771 Z M36.3640178,41.3080466 L37.8544796,41.3080466 C40.0161545,41.3080466 41.4148621,42.2788979 41.4148621,44.7978794 C41.4148621,47.3172573 40.0161545,48.2879103 37.8544796,48.2879103 L36.3640178,48.2879103 L36.3640178,41.3080466 Z M22.3482073,38.6358771 L19.4552727,48.361829 L16.6840165,38.6366698 L12.9427018,38.6358771 L16.90062,50.9079603 L21.8959757,50.9079603 L25.8857999,38.6358771 L22.3482073,38.6358771 Z M46.4197301,50.9079603 L49.8871693,50.9079603 L49.8871693,38.6366698 L46.4191356,38.6358771 L46.4197301,50.9079603 Z M56.1367642,38.6404351 L51.2965782,50.9034023 L54.7142759,50.9034023 L55.4798195,48.7365748 L61.207624,48.7365748 L61.9321458,50.9034023 L65.6423473,50.9034023 L60.7662919,38.6390479 L56.1367642,38.6404351 Z M58.3860318,40.8778123 L60.486273,46.6232542 L56.2207897,46.6232542 L58.3860318,40.8778123 Z" id="Shape" fill="#000000"></path>
                            <path d="M22.762786,9.88904855 L22.762786,6.94042721 C23.0493447,6.9204117 23.3378851,6.90495418 23.6329652,6.89564003 C31.6962426,6.64237449 36.986084,13.8247714 36.986084,13.8247714 C36.986084,13.8247714 31.2723498,21.7600288 25.1460187,21.7600288 C24.2645437,21.7600288 23.4740301,21.6183349 22.7625878,21.3789414 L22.7625878,12.4389451 C25.9016537,12.8182489 26.5332322,14.2048679 28.4206352,17.3508699 L32.6179469,13.8116919 C32.6179469,13.8116919 29.5541868,9.79333082 24.3891947,9.79333082 C23.8275714,9.79313264 23.2903234,9.83256914 22.762786,9.88904855 L22.762786,9.88904855 Z M22.762786,0.150017229 L22.762786,4.55303281 C23.0523173,4.5308374 23.3418485,4.51201093 23.6329652,4.50210226 C34.8460099,4.12418567 42.152067,13.6985349 42.152067,13.6985349 C42.152067,13.6985349 33.7608126,23.9020846 25.0185933,23.9020846 C24.2173784,23.9020846 23.4672923,23.8277696 22.762786,23.7027222 L22.762786,26.4256241 C23.365233,26.5019208 23.9896772,26.5469062 24.6414694,26.5469062 C32.7768819,26.5469062 38.6600543,22.3922018 44.3567455,17.4749264 C45.3010416,18.2313541 49.1679982,20.0715918 49.9628715,20.8767702 C44.5463974,25.4119674 31.9229529,29.0672749 24.7661204,29.0672749 C24.0764771,29.0672749 23.4139836,29.0254603 22.762786,28.9628375 L22.762786,32.7887723 L53.6841708,32.7887723 L53.6841708,0.150017229 L22.762786,0.150017229 Z M22.762786,21.3791396 L22.762786,23.7033167 C15.2385401,22.3616831 13.1499911,14.5403753 13.1499911,14.5403753 C13.1499911,14.5403753 16.7626913,10.5382645 22.762786,9.88924672 L22.762786,12.4391433 C22.758228,12.4391433 22.7550572,12.4377561 22.7510938,12.4377561 C19.6021192,12.0598395 17.1419951,15.0017229 17.1419951,15.0017229 C17.1419951,15.0017229 18.5208853,19.954075 22.762786,21.3791396 L22.762786,21.3791396 Z M9.39837132,14.2009044 C9.39837132,14.2009044 13.8580645,7.62095451 22.762786,6.94022904 L22.762786,4.55303281 C12.8996981,5.34513171 4.3590211,13.6985349 4.3590211,13.6985349 C4.3590211,13.6985349 9.19643267,27.6824395 22.762786,28.9630357 L22.762786,26.4256241 C12.8071512,25.1731685 9.39837132,14.2009044 9.39837132,14.2009044 L9.39837132,14.2009044 Z" id="Shape" fill="#77B900" fill-rule="nonzero"></path>
                        </g>
                    </g>
                </g>
                <path d="M1.5,119.5 L100.5,119.5 L100.5,0.5 L55,0.5 C25.4527659,0.5 1.5,24.4527659 1.5,54 L1.5,119.5 Z" id="Rectangle" stroke="#006FA8"></path>
            </g>
        </g>
    </g>
</svg>